<svg width="16" height="16" viewBox="0 0 16 16" fill="none" xmlns="http://www.w3.org/2000/svg">
<path d="M2.12187 0.707076C1.73136 0.316564 1.0982 0.316568 0.707671 0.707063V0.707063C0.317119 1.09758 0.317085 1.73078 0.707618 2.12132L5.87908 7.29284C6.2696 7.68336 6.26961 8.31652 5.87909 8.70704L0.707604 13.8786C0.317077 14.2691 0.317116 14.9023 0.707654 15.2928V15.2928C1.09818 15.6833 1.73137 15.6834 2.12189 15.2928L7.29338 10.1213C7.68391 9.73077 8.31707 9.73077 8.7076 10.1213L13.8791 15.2928C14.2696 15.6833 14.9028 15.6833 15.2933 15.2928V15.2928C15.6839 14.9023 15.6839 14.2691 15.2934 13.8786L10.1219 8.70704C9.73137 8.31652 9.73137 7.68336 10.1219 7.29284L15.2934 2.12132C15.6839 1.73079 15.6839 1.09758 15.2933 0.707063V0.707063C14.9028 0.316568 14.2696 0.316565 13.8791 0.707077L8.7076 5.87859C8.31707 6.26911 7.6839 6.26911 7.29338 5.87859L2.12187 0.707076Z" />
</svg>
