<svg width="12" height="16" viewBox="0 0 12 16" fill="none" xmlns="http://www.w3.org/2000/svg">
<path d="M5.76348 11.6208L6.16265 9.95719H6.63666C8.6325 9.95719 12.0005 8.88073 12.0005 5.08869C12.0005 2.25076 10.2791 0 6.03791 0C1.67201 0 0.000488281 2.34862 0.000488281 5.50459H2.64498C2.64498 3.47401 3.6928 2.27523 6.1377 2.27523C8.40797 2.27523 9.3061 3.5474 9.3061 5.08869C9.3061 6.97248 8.03375 7.90214 5.48905 7.95107H3.49321V11.6208H5.76348ZM4.66577 16C5.78843 16 6.56182 15.682 6.56182 14.4098C6.56182 13.1376 5.78843 12.8685 4.66577 12.8685C3.51816 12.8685 2.69487 13.1376 2.69487 14.4098C2.69487 15.682 3.51816 16 4.66577 16Z" fill="white"/>
</svg>
